<svg width="306" height="73" viewBox="0 0 306 73" fill="none" xmlns="http://www.w3.org/2000/svg">
<path d="M110.07 16.378H106.71V22.678H110.07C111.442 22.678 112.394 22.398 112.926 21.838C113.486 21.25 113.766 20.452 113.766 19.444C113.766 18.52 113.486 17.778 112.926 17.218C112.394 16.658 111.442 16.378 110.07 16.378ZM122.376 19.36C122.376 21.264 122.04 22.902 121.368 24.274C120.724 25.646 119.73 26.724 118.386 27.508L123.846 37H113.766L110.028 29.02H106.71V37H98.1V9.40601H111.624C115.208 9.40601 117.896 10.302 119.688 12.094C121.48 13.886 122.376 16.308 122.376 19.36Z" fill="#31B380"/>
<path d="M137.258 37.462C135.158 37.462 133.352 37.196 131.84 36.664C130.328 36.104 129.082 35.334 128.102 34.354C127.15 33.374 126.436 32.198 125.96 30.826C125.512 29.426 125.288 27.9 125.288 26.248V9.40601H133.94V25.786C133.94 27.046 134.192 28.082 134.696 28.894C135.2 29.706 136.054 30.112 137.258 30.112C138.462 30.112 139.316 29.706 139.82 28.894C140.324 28.082 140.576 27.046 140.576 25.786V9.40601H149.228V26.248C149.228 27.9 148.99 29.426 148.514 30.826C148.066 32.198 147.352 33.374 146.372 34.354C145.42 35.334 144.188 36.104 142.676 36.664C141.164 37.196 139.358 37.462 137.258 37.462Z" fill="#31B380"/>
<path d="M163.515 26.416L160.785 15.79V37H153.183V9.40601H167.085L169.857 17.974L171.705 26.5L173.721 17.974L176.493 9.40601H189.429V37H181.197V16.042L178.635 26.416L175.107 37H167.001L163.515 26.416Z" fill="#31B380"/>
<path d="M205.47 32.38C204.826 32.38 204.168 32.366 203.496 32.338C202.824 32.282 202.138 32.198 201.438 32.086L200.346 37H191.106L199.338 9.40601H211.896L220.086 37H210.846L209.754 32.044C209.026 32.156 208.298 32.24 207.57 32.296C206.87 32.352 206.17 32.38 205.47 32.38ZM205.47 26.29C205.946 26.29 206.422 26.276 206.898 26.248C207.402 26.22 207.906 26.178 208.41 26.122L205.596 13.606L202.782 26.164C203.23 26.192 203.678 26.22 204.126 26.248C204.574 26.276 205.022 26.29 205.47 26.29Z" fill="#31B380"/>
<path d="M238.812 9.40601H247.506V37H238.812V27.046H230.454V37H221.802V9.40601H230.454V19.654H238.812V9.40601Z" fill="#31B380"/>
<path d="M109.944 51.798H106.668V64.608H110.154C112.002 64.608 113.388 64.09 114.312 63.054C115.264 61.99 115.74 60.366 115.74 58.182C115.74 55.97 115.264 54.36 114.312 53.352C113.388 52.316 111.932 51.798 109.944 51.798ZM98.016 72V44.406H110.112C112.492 44.406 114.564 44.742 116.328 45.414C118.12 46.086 119.59 47.024 120.738 48.228C121.914 49.432 122.782 50.888 123.342 52.596C123.93 54.304 124.224 56.194 124.224 58.266C124.224 60.338 123.93 62.228 123.342 63.936C122.754 65.644 121.872 67.1 120.696 68.304C119.548 69.48 118.078 70.39 116.286 71.034C114.522 71.678 112.464 72 110.112 72H98.016Z" fill="#31B380"/>
<path d="M127.138 44.406H135.79V72H127.138V44.406Z" fill="#31B380"/>
<path d="M164.212 70.488C163.624 70.852 162.924 71.16 162.112 71.412C161.3 71.664 160.432 71.86 159.508 72C158.584 72.168 157.632 72.28 156.652 72.336C155.7 72.42 154.804 72.462 153.964 72.462C151.5 72.462 149.302 72.112 147.37 71.412C145.466 70.712 143.87 69.746 142.582 68.514C141.294 67.282 140.314 65.798 139.642 64.062C138.998 62.298 138.676 60.366 138.676 58.266C138.676 53.786 140.118 50.272 143.002 47.724C145.886 45.176 149.89 43.902 155.014 43.902C156.358 43.902 157.828 44.028 159.424 44.28C161.048 44.532 162.546 44.994 163.918 45.666V52.638C162.658 52.022 161.272 51.588 159.76 51.336C158.276 51.056 156.96 50.916 155.812 50.916C152.732 50.916 150.506 51.588 149.134 52.932C147.79 54.248 147.118 55.97 147.118 58.098C147.118 60.226 147.762 61.962 149.05 63.306C150.338 64.65 152.368 65.322 155.14 65.322C155.364 65.322 155.616 65.322 155.896 65.322C156.204 65.294 156.526 65.266 156.862 65.238V61.164H152.41V55.41H164.212V70.488Z" fill="#31B380"/>
<path d="M168.277 44.406H176.929V72H168.277V44.406Z" fill="#31B380"/>
<path d="M179.353 44.406H200.017V51.504H194.011V72H185.359V51.504H179.353V44.406Z" fill="#31B380"/>
<path d="M212.853 67.38C212.209 67.38 211.551 67.366 210.879 67.338C210.207 67.282 209.521 67.198 208.821 67.086L207.729 72H198.489L206.721 44.406H219.279L227.469 72H218.229L217.137 67.044C216.409 67.156 215.681 67.24 214.953 67.296C214.253 67.352 213.553 67.38 212.853 67.38ZM212.853 61.29C213.329 61.29 213.805 61.276 214.281 61.248C214.785 61.22 215.289 61.178 215.793 61.122L212.979 48.606L210.165 61.164C210.613 61.192 211.061 61.22 211.509 61.248C211.957 61.276 212.405 61.29 212.853 61.29Z" fill="#31B380"/>
<path d="M229.059 44.406H237.711V64.608H247.329V72H229.059V44.406Z" fill="#31B380"/>
<path d="M265.312 72L259.726 59.316L257.5 72H248.848L253.72 44.406H262.372L260.146 57.048L269.47 44.406H279.508L268.042 58.56L274.804 72H265.312Z" fill="#31B380"/>
<path d="M289.003 72.462C285.251 72.462 282.521 71.636 280.813 69.984C279.105 68.304 278.251 66.092 278.251 63.348C278.251 62.816 278.293 62.256 278.377 61.668C278.461 61.052 278.559 60.45 278.671 59.862L281.401 44.406H290.053L287.155 60.786C287.127 61.038 287.099 61.304 287.071 61.584C287.043 61.836 287.029 62.102 287.029 62.382C287.029 63.166 287.239 63.824 287.659 64.356C288.107 64.86 288.835 65.112 289.843 65.112C291.047 65.112 291.943 64.72 292.531 63.936C293.147 63.124 293.567 62.074 293.791 60.786L296.689 44.406H305.341L302.359 61.248C302.079 62.9 301.617 64.426 300.973 65.826C300.329 67.198 299.475 68.388 298.411 69.396C297.375 70.376 296.073 71.132 294.505 71.664C292.965 72.196 291.131 72.462 289.003 72.462Z" fill="#31B380"/>
<path d="M43.2955 14.4318L14.4318 43.2956H28.8637V57.7274H43.2955H57.7273V43.2956H72.1592L43.2955 14.4318ZM28.8637 72.1592V57.7274H14.4318V43.2956H0V28.8638L28.8637 0H43.2955H57.7273L86.591 28.8638V43.2956H72.1592V57.7274H57.7273V72.1592H43.2955H28.8637Z" fill="url(#paint0_linear_2618_8475)"/>
<defs>
<linearGradient id="paint0_linear_2618_8475" x1="43.2955" y1="0" x2="43.2955" y2="72.1592" gradientUnits="userSpaceOnUse">
<stop stop-color="#31B380"/>
<stop offset="1" stop-color="#287BB5"/>
</linearGradient>
</defs>
</svg>
