<!-- public/icons.svg -->
<svg xmlns="http://www.w3.org/2000/svg">
    <!-- Icon DS -->
    <symbol id="icon-ds" width="21" height="21" viewBox="0 0 24 24">
        <path d="M17 10H19C21 10 22 9 22 7V5C22 3 21 2 19 2H17C15 2 14 3 14 5V7C14 9 15 10 17 10Z" stroke="#757575" stroke-width="1.5" stroke-miterlimit="10" stroke-linecap="round" stroke-linejoin="round"/>
<path d="M5 22H7C9 22 10 21 10 19V17C10 15 9 14 7 14H5C3 14 2 15 2 17V19C2 21 3 22 5 22Z" stroke="#757575" stroke-width="1.5" stroke-miterlimit="10" stroke-linecap="round" stroke-linejoin="round"/>
<path d="M6 10C8.20914 10 10 8.20914 10 6C10 3.79086 8.20914 2 6 2C3.79086 2 2 3.79086 2 6C2 8.20914 3.79086 10 6 10Z" stroke="#757575" stroke-width="1.5" stroke-miterlimit="10" stroke-linecap="round" stroke-linejoin="round"/>
<path d="M18 22C20.2091 22 22 20.2091 22 18C22 15.7909 20.2091 14 18 14C15.7909 14 14 15.7909 14 18C14 20.2091 15.7909 22 18 22Z" stroke="#757575" stroke-width="1.5" stroke-miterlimit="10" stroke-linecap="round" stroke-linejoin="round"/>
         </symbol>


    <!-- Icon Management User -->
    <symbol id="icon-management-user" width="21" height="21" viewBox="0 0 24 24" >
        <path d="M21 16.25H20.328C20.241 15.864 20.087 15.504 19.881 15.18L20.357 14.703C20.65 14.41 20.65 13.935 20.357 13.642C20.064 13.349 19.589 13.349 19.296 13.642L18.82 14.119C18.495 13.913 18.136 13.759 17.75 13.672V13C17.75 12.586 17.414 12.25 17 12.25C16.586 12.25 16.25 12.586 16.25 13V13.672C15.864 13.759 15.505 13.913 15.18 14.119L14.704 13.642C14.411 13.349 13.936 13.349 13.643 13.642C13.35 13.935 13.35 14.41 13.643 14.703L14.119 15.18C13.913 15.505 13.759 15.864 13.672 16.25H13C12.586 16.25 12.25 16.586 12.25 17C12.25 17.414 12.586 17.75 13 17.75H13.672C13.759 18.136 13.913 18.496 14.119 18.82L13.643 19.297C13.35 19.59 13.35 20.065 13.643 20.358C13.789 20.504 13.981 20.578 14.173 20.578C14.365 20.578 14.557 20.505 14.703 20.358L15.179 19.881C15.504 20.087 15.863 20.241 16.249 20.328V21C16.249 21.414 16.585 21.75 16.999 21.75C17.413 21.75 17.749 21.414 17.749 21V20.328C18.135 20.241 18.494 20.087 18.819 19.881L19.295 20.358C19.441 20.504 19.633 20.578 19.825 20.578C20.017 20.578 20.209 20.505 20.355 20.358C20.648 20.065 20.648 19.59 20.355 19.297L19.879 18.82C20.085 18.495 20.239 18.136 20.326 17.75H20.998C21.412 17.75 21.748 17.414 21.748 17C21.748 16.586 21.412 16.25 20.998 16.25H21ZM18.35 18.35C18.344 18.356 18.342 18.364 18.337 18.37C17.991 18.707 17.521 18.917 17.001 18.917C16.481 18.917 16.01 18.707 15.665 18.37C15.659 18.364 15.657 18.356 15.652 18.35C15.647 18.344 15.638 18.342 15.632 18.337C15.295 17.991 15.085 17.52 15.085 17.001C15.085 16.482 15.295 16.011 15.632 15.665C15.638 15.659 15.646 15.658 15.652 15.652C15.658 15.646 15.66 15.638 15.665 15.632C16.011 15.295 16.481 15.085 17.001 15.085C17.521 15.085 17.992 15.295 18.337 15.632C18.343 15.638 18.345 15.646 18.35 15.652C18.355 15.658 18.364 15.66 18.37 15.665C18.707 16.011 18.917 16.481 18.917 17.001C18.917 17.521 18.707 17.992 18.37 18.337C18.364 18.343 18.356 18.344 18.35 18.35ZM12 11.75C9.381 11.75 7.25 9.619 7.25 7C7.25 4.381 9.381 2.25 12 2.25C14.619 2.25 16.75 4.381 16.75 7C16.75 9.619 14.619 11.75 12 11.75ZM12 3.75C10.208 3.75 8.75 5.208 8.75 7C8.75 8.792 10.208 10.25 12 10.25C13.792 10.25 15.25 8.792 15.25 7C15.25 5.208 13.792 3.75 12 3.75ZM11.72 21C11.72 20.586 11.384 20.25 10.97 20.25H6C5.311 20.25 4.75 19.689 4.75 19C4.75 16.656 6.657 14.75 9 14.75H11C11.414 14.75 11.75 14.414 11.75 14C11.75 13.586 11.414 13.25 11 13.25H9C5.83 13.25 3.25 15.829 3.25 19C3.25 20.517 4.483 21.75 6 21.75H10.97C11.384 21.75 11.72 21.414 11.72 21Z" fill="#757575"/>
    </symbol>

    <!-- Icon Transaction -->
    <symbol id="icon-transaction" width="21" height="21" viewBox="0 0 24 24" >
        <path d="M2.5 11.5C2.5 7.25768 2.5 5.13558 3.81779 3.81779C5.13558 2.5 7.25674 2.5 11.5 2.5C15.7423 2.5 17.8644 2.5 19.1822 3.81779C20.5 5.13558 20.5 7.25674 20.5 11.5C20.5 15.7423 20.5 17.8644 19.1822 19.1822C17.8644 20.5 15.7433 20.5 11.5 20.5C7.25768 20.5 5.13558 20.5 3.81779 19.1822C2.5 17.8644 2.5 15.7433 2.5 11.5Z" stroke="#757575" stroke-width="1.5" stroke-linecap="round" stroke-linejoin="round"/>
        <path d="M9.52536 7.71094L7.7642 8.95862C7.37578 9.23336 7.18157 9.37167 7.24978 9.48915C7.31799 9.60567 7.59273 9.60567 8.1422 9.60567H15.7628M13.474 15.2899L15.2351 14.0422C15.6236 13.7675 15.8178 13.6291 15.7496 13.5117C15.6814 13.3951 15.4066 13.3951 14.8571 13.3951H7.23652" stroke="#757575" stroke-width="1.5" stroke-linecap="round" stroke-linejoin="round"/>
    </symbol>

    <!-- Icon Share -->
    <symbol id="icon-share" width="21" height="21" viewBox="0 0 24 24" >
        <path d="M15.899 18.8254L9.10059 14.9003M9.10059 11.1009L15.899 7.17578" stroke="#757575" stroke-width="1.5" stroke-miterlimit="2.6131"/>
        <path d="M21.876 7.96259C23.3596 6.47903 23.3596 4.07371 21.876 2.59015C20.3925 1.10659 17.9872 1.10659 16.5036 2.59015C15.02 4.07371 15.02 6.47903 16.5036 7.96259C17.9872 9.44615 20.3925 9.44615 21.876 7.96259Z" stroke="#757575" stroke-width="1.5" stroke-miterlimit="2.6131"/>
        <path d="M22.9648 21.1397C23.1937 19.0542 21.6886 17.178 19.6031 16.9491C17.5176 16.7202 15.6414 18.2253 15.4125 20.3108C15.1836 22.3963 16.6887 24.2725 18.7742 24.5014C20.8597 24.7303 22.7359 23.2252 22.9648 21.1397Z" stroke="#757575" stroke-width="1.5" stroke-miterlimit="2.6131"/>
        <path d="M9.56058 13.6098C9.89669 11.5388 8.49027 9.58744 6.41924 9.25133C4.34822 8.91521 2.39685 10.3216 2.06074 12.3927C1.72462 14.4637 3.13104 16.4151 5.20207 16.7512C7.27309 17.0873 9.22446 15.6809 9.56058 13.6098Z" stroke="#757575" stroke-width="1.5" stroke-miterlimit="2.6131"/>
    </symbol>
</svg>
